Coordinates
version=1
nRows=11
nColumns=36
inDegrees=yes

Units are S.I. units (second, meters, Newtons, ...)
If the header above contains a line with 'inDegrees', this indicates whether rotational values are in degrees (yes) or radians (no).

endheader
time	pelvis_tilt	pelvis_list	pelvis_rotation	pelvis_tx	pelvis_ty	pelvis_tz	hip_flexion_r	hip_adduction_r	hip_rotation_r	knee_angle_r	knee_angle_r_beta	ankle_angle_r	subtalar_angle_r	mtp_angle_r	hip_flexion_l	hip_adduction_l	hip_rotation_l	knee_angle_l	knee_angle_l_beta	ankle_angle_l	subtalar_angle_l	mtp_angle_l	lumbar_extension	lumbar_bending	lumbar_rotation	arm_flex_r	arm_add_r	arm_rot_r	elbow_flex_r	pro_sup_r	arm_flex_l	arm_add_l	arm_rot_l	elbow_flex_l	pro_sup_l
      0.00400000	     -1.36593051	     -9.71838471	      0.06223335	     -5.38074701	      1.05463748	      0.18825334	     51.13226030	     10.81191386	     -8.50202158	     40.72959642	      0.71086556	     -1.28391238	     -8.67217218	    -28.63348040	    -35.27524151	     -5.22391772	     -5.48110930	     41.60861230	      0.72620728	    -18.82337643	     -5.85995976	    -21.03559574	     -6.20166067	     12.59725629	     -9.78118595	    -65.63738474	    -18.65580485	    -13.56164744	     73.30047872	     90.00021046	     16.87216140	    -13.11437216	      4.52663072	    148.93242826	     90.00021046
      0.00800000	     -1.28370376	     -8.58641185	      0.38679132	     -5.35323537	      1.05535224	      0.18693494	     49.55588391	      9.80223291	     -7.82302829	     36.80048418	      0.64228962	     -1.18780276	     -6.75371801	    -30.93557574	    -34.48637519	     -4.25053602	     -4.34743534	     44.90367572	      0.78371699	    -21.17655862	    -10.54382585	    -27.74836229	     -6.41498388	     11.49251834	    -10.35503607	    -64.55742603	    -18.79321927	    -13.47829944	     72.80088092	     90.00021046	     15.62801811	    -13.19831417	      4.46134370	    148.55733473	     90.00021046
      0.01200000	     -1.18658280	     -7.90248324	      0.71464196	     -5.32564833	      1.05588005	      0.18639417	     47.94139117	      9.21273129	     -7.39607132	     32.89094007	      0.57405520	     -1.24568593	     -4.96392982	    -32.40616045	    -33.76910154	     -3.90055696	     -3.77468194	     48.47209025	      0.84599757	    -20.66791973	    -11.78641091	    -28.49334042	     -6.70453555	     10.84632792	    -10.90465278	    -63.44719533	    -18.93194691	    -13.37373505	     72.48149548	     90.00021046	     14.22071133	    -13.33188496	      4.19509643	    148.06992590	     90.00021046
      0.01600000	     -1.04362605	     -7.21489375	      0.94923879	     -5.29833390	      1.05628730	      0.18584911	     46.34872268	      8.64132461	     -7.01424234	     29.28020328	      0.51103595	     -1.63074934	     -3.09320651	    -34.83622251	    -33.03489915	     -3.41012363	     -3.08640706	     52.15092766	      0.91020540	    -20.03824600	    -12.92544251	    -27.25117104	     -6.92912847	     10.05107766	    -11.01733248	    -62.39765370	    -18.88791108	    -13.16762961	     72.06717153	     90.00021046	     13.22512078	    -13.31358265	      4.51214867	    146.88281795	     90.00021046
      0.02000000	     -0.92674358	     -6.33507012	      1.18516779	     -5.27127457	      1.05652441	      0.18542292	     44.92903072	      7.86324569	     -6.67492677	     26.12869551	      0.45603177	     -2.16508664	     -1.37227610	    -36.90753113	    -31.87631897	     -2.73692742	     -2.22919185	     56.60383939	      0.98792337	    -17.02991004	    -11.98702246	    -16.60919780	     -7.22562946	      9.08207743	    -11.26079151	    -61.18951861	    -18.90769179	    -12.88499673	     71.77576064	     90.00021046	     12.08831393	    -13.37453229	      4.44071155	    145.50780935	     90.00021046
      0.02400000	     -0.78643850	     -5.61279579	      1.34936798	     -5.24415597	      1.05650722	      0.18489368	     43.56576957	      7.22076918	     -6.47281364	     23.33453487	      0.40726446	     -2.79175474	      0.19670914	    -38.19149605	    -30.97239880	     -2.10689391	     -1.56758702	     60.44490717	      1.05496265	    -16.78415268	    -13.25060765	    -16.21888107	     -7.62035364	      8.34416245	    -11.42604406	    -59.97981260	    -19.01387336	    -12.60226513	     71.55426050	     90.00021046	     10.80716173	    -13.35753369	      4.25600743	    144.12655015	     90.00021046
      0.02800000	     -0.42957301	     -4.96484293	      1.43722182	     -5.21688272	      1.05664720	      0.18433949	     42.04516175	      6.62845076	     -6.59783888	     20.93509382	      0.36538632	     -3.38480880	      1.82191908	    -39.77732634	    -30.42719031	     -1.37401856	     -0.90203589	     63.81915682	      1.11385441	    -18.69877852	    -16.27499426	    -20.76942756	     -8.16794671	      7.66522627	    -11.33601677	    -58.84774397	    -19.04895786	    -12.37945554	     71.48923724	     90.00021046	      9.68963839	    -13.24583739	      4.19548456	    142.24837014	     90.00021046
      0.03200000	     -0.02218267	     -4.48719085	      1.61871219	     -5.18963022	      1.05666833	      0.18389997	     40.48304405	      6.16945503	     -6.82775900	     18.78641936	      0.32788487	     -3.92265596	      2.96497182	    -40.34167308	    -29.71832180	     -0.94304404	     -0.37027884	     67.69341320	      1.18147294	    -18.47613009	    -17.19974956	    -19.75595044	     -8.80220196	      7.16522530	    -11.31487129	    -57.63861918	    -19.11208327	    -12.08996102	     71.37184256	     90.00021046	      8.48820529	    -13.09180936	      4.15151874	    140.31754581	     90.00021046
      0.03600000	      0.32302046	     -4.13797305	      1.68217754	     -5.16213750	      1.05635170	      0.18367215	     39.07451439	      5.87617256	     -7.27374426	     17.07968218	      0.29809669	     -4.28812601	      3.81717132	    -40.94254856	    -29.09257681	     -0.58645269	     -0.02314367	     71.36866209	      1.24561814	    -17.99712380	    -18.10776631	    -19.24736953	     -9.36784511	      6.80920276	    -11.11291447	    -56.46296512	    -19.18076164	    -11.82453829	     71.23993424	     90.00021046	      7.25173089	    -12.92440867	      4.01314217	    138.17727285	     90.00021046
      0.04000000	      0.92188700	     -4.19015325	      1.85682460	     -5.13444074	      1.05635947	      0.18406413	     37.35798559	      5.99264505	     -7.90328170	     15.50054241	      0.27053550	     -4.67117964	      3.94473615	    -40.94296006	    -28.70676331	     -0.92352824	      0.25466555	     74.85343755	      1.30643894	    -18.31217491	    -16.75872420	    -22.49151979	    -10.15321427	      6.81554354	    -10.94312911	    -55.20023339	    -19.24288256	    -11.44762579	     71.14012553	     90.00021046	      5.97693671	    -12.79554567	      3.80283769	    136.02341006	     90.00021046
      0.04400000	      1.53127236	     -4.01157567	      2.00476086	     -5.10706250	      1.05623793	      0.18378778	     35.83860990	      5.82569758	     -8.69084228	     14.64023077	      0.25552023	     -4.58272384	      4.13586041	    -40.49630415	    -27.98204272	     -0.82955732	      0.25577313	     78.85086709	      1.37620725	    -18.04090167	    -18.62798130	    -18.01796153	    -10.99271843	      6.64071555	    -10.74008306	    -53.89351167	    -19.36231610	    -11.08307105	     71.09725947	     90.00021046	      4.80452588	    -12.55444689	      3.56579232	    133.37701199	     90.00021046
